<?xml version="1.0" encoding="UTF-8" standalone="no" ?>
<!DOCTYPE svg PUBLIC "-//W3C//DTD SVG 1.1//EN" "http://www.w3.org/Graphics/SVG/1.1/DTD/svg11.dtd">
<svg xmlns="http://www.w3.org/2000/svg" xmlns:xlink="http://www.w3.org/1999/xlink" version="1.1" width="1280" height="1024" viewBox="0 0 1280 1024" xml:space="preserve">
<desc>Created with Fabric.js 4.4.0</desc>
<defs>
</defs>
<g transform="matrix(1 0 0 1 640 512)" id="background-logo"  >
<rect style="stroke: none; stroke-width: 0; stroke-dasharray: none; stroke-linecap: butt; stroke-dashoffset: 0; stroke-linejoin: miter; stroke-miterlimit: 4; fill: rgb(255,255,255); fill-opacity: 0; fill-rule: nonzero; opacity: 1;"  paint-order="stroke"  x="-640" y="-512" rx="0" ry="0" width="1280" height="1024" />
</g>
<g transform="matrix(9.70458915151294 0 0 9.70458915151294 701.8800529341728 392.11944333450856)" id="logo-logo"  >
<g style=""  paint-order="stroke"   >
		<g transform="matrix(0.5089614134237089 0 0 -0.5089614134237089 11.12050150646013 -34.78499324851407)"  >
<path style="stroke: none; stroke-width: 1; stroke-dasharray: none; stroke-linecap: butt; stroke-dashoffset: 0; stroke-linejoin: miter; stroke-miterlimit: 4; fill: rgb(237,26,42); fill-rule: nonzero; opacity: 1;"  paint-order="stroke"  transform=" translate(-21.849999999999998, 7.025)" d="M 0 0 C -0.015 0 -0.027 -0.001 -0.042 -0.001 L -0.042 -14.05 L 43.742 -14.05 C 31.398 -5.219 16.302 0 0 0" stroke-linecap="round" />
</g>
		<g transform="matrix(0.5089614134237089 0 0 -0.5089614134237089 18.64269671615574 -12.217135215893393)"  >
<path style="stroke: none; stroke-width: 1; stroke-dasharray: none; stroke-linecap: butt; stroke-dashoffset: 0; stroke-linejoin: miter; stroke-miterlimit: 4; fill: rgb(237,26,42); fill-rule: nonzero; opacity: 1;"  paint-order="stroke"  transform=" translate(-36.6295, -6.5265)" d="M 0 0 L 73.301 0 C 72.22 4.539 70.728 8.918 68.862 13.1 L -0.042 13.1 L -0.042 -0.047 L 0 -0.047 L 0 0" stroke-linecap="round" />
</g>
		<g transform="matrix(0.5089614134237089 0 0 -0.5089614134237089 16.3366434480742 -23.38614074505267)"  >
<path style="stroke: none; stroke-width: 1; stroke-dasharray: none; stroke-linecap: butt; stroke-dashoffset: 0; stroke-linejoin: miter; stroke-miterlimit: 4; fill: rgb(237,26,42); fill-rule: nonzero; opacity: 1;"  paint-order="stroke"  transform=" translate(21.877000000000002, 6.58)" d="M 0 0 L -54.018 0 L -54.018 -13.16 L 10.264 -13.16 C 7.333 -8.396 3.882 -3.988 0 0" stroke-linecap="round" />
</g>
		<g transform="matrix(0.5089614134237089 0 0 -0.5089614134237089 -20.909712643827504 -23.47999322968795)"  >
<path style="stroke: none; stroke-width: 1; stroke-dasharray: none; stroke-linecap: butt; stroke-dashoffset: 0; stroke-linejoin: miter; stroke-miterlimit: 4; fill: rgb(50,54,132); fill-rule: nonzero; opacity: 1;"  paint-order="stroke"  transform=" translate(32.2495, -28.703)" d="M 0 0 L 0 57.406 C -31.591 53.699 -57.274 30.389 -64.499 0 L -55.738 0 L 0 0" stroke-linecap="round" />
</g>
		<g transform="matrix(0.5089614134237089 0 0 -0.5089614134237089 0 16.969562413737293)"  >
<path style="stroke: none; stroke-width: 1; stroke-dasharray: none; stroke-linecap: butt; stroke-dashoffset: 0; stroke-linejoin: miter; stroke-miterlimit: 4; fill: rgb(237,26,42); fill-rule: nonzero; opacity: 1;"  paint-order="stroke"  transform=" translate(75.3685, 33.342499999999994)" d="M 0 0 C 0 -8.116 -1.289 -15.937 -3.674 -23.268 C -3.8649999999999998 -23.856 -4.064 -24.441000000000003 -4.268 -25.02 C -4.678 -26.181 -5.114 -27.328 -5.579 -28.46 C -5.811 -29.028000000000002 -6.05 -29.592000000000002 -6.295 -30.152 C -6.541 -30.71 -6.792 -31.267 -7.051 -31.82 C -7.439 -32.65 -7.8420000000000005 -33.469 -8.258000000000001 -34.282000000000004 C -8.675 -35.095000000000006 -9.105 -35.900000000000006 -9.55 -36.693000000000005 C -10.144 -37.75300000000001 -10.763000000000002 -38.797000000000004 -11.404 -39.825 C -11.724 -40.341 -12.052 -40.849000000000004 -12.386 -41.356 C -12.719999999999999 -41.861000000000004 -13.059 -42.361000000000004 -13.401 -42.86 C -13.917 -43.604 -14.448 -44.339999999999996 -14.993 -45.065 C -15.718 -46.035 -16.465 -46.982 -17.232 -47.915 C -17.808999999999997 -48.614 -18.398 -49.301 -18.997999999999998 -49.977 C -19.197 -50.202999999999996 -19.397 -50.427 -19.602999999999998 -50.65 C -20.415 -51.543 -21.247999999999998 -52.416 -22.101999999999997 -53.269 C -35.748 -66.91799999999999 -54.589 -75.371 -75.36699999999999 -75.371 C -83.48499999999999 -75.371 -91.30499999999999 -74.08099999999999 -98.636 -71.696 C -98.92999999999999 -71.599 -99.22399999999999 -71.502 -99.514 -71.40299999999999 C -99.80799999999999 -71.30499999999999 -100.09899999999999 -71.20299999999999 -100.39 -71.103 C -100.969 -70.898 -101.545 -70.68599999999999 -102.118 -70.466 L -102.121 -70.466 C -103.26899999999999 -70.03099999999999 -104.39999999999999 -69.565 -105.51899999999999 -69.07499999999999 L -105.52099999999999 -69.07499999999999 C -106.08099999999999 -68.82999999999998 -106.63399999999999 -68.579 -107.18799999999999 -68.31899999999999 C -107.46399999999998 -68.19099999999999 -107.74099999999999 -68.05899999999998 -108.01799999999999 -67.92799999999998 C -108.56499999999998 -67.65999999999998 -109.10999999999999 -67.38899999999998 -109.64899999999999 -67.11199999999998 C -110.19399999999999 -66.83499999999998 -110.72999999999999 -66.54999999999998 -111.26699999999998 -66.25899999999999 C -111.79999999999998 -65.96799999999999 -112.32799999999997 -65.67099999999999 -112.85299999999998 -65.36999999999999 C -113.38099999999999 -65.067 -113.90199999999999 -64.75599999999999 -114.42199999999998 -64.442 C -114.93799999999999 -64.12599999999999 -115.45099999999998 -63.80599999999999 -115.96199999999999 -63.480999999999995 C -120.54899999999999 -60.53699999999999 -124.79899999999999 -57.108 -128.636 -53.26899999999999 C -129.489 -52.41799999999999 -130.322 -51.544999999999995 -131.135 -50.64999999999999 C -131.337 -50.42699999999999 -131.53699999999998 -50.20299999999999 -131.739 -49.97699999999999 C -132.342 -49.30099999999999 -132.929 -48.61399999999999 -133.505 -47.91499999999999 C -134.275 -46.98199999999999 -135.022 -46.03499999999999 -135.744 -45.06499999999999 C -136.286 -44.33999999999999 -136.817 -43.60399999999999 -137.336 -42.85999999999999 C -137.679 -42.36099999999999 -138.018 -41.86099999999999 -138.352 -41.355999999999995 C -138.686 -40.849 -139.011 -40.340999999999994 -139.333 -39.824999999999996 C -139.978 -38.797 -140.594 -37.75299999999999 -141.187 -36.693 C -141.632 -35.9 -142.062 -35.095 -142.479 -34.282 C -142.89600000000002 -33.468999999999994 -143.298 -32.65 -143.687 -31.819999999999997 C -143.94500000000002 -31.266999999999996 -144.196 -30.709999999999997 -144.442 -30.151999999999997 C -145.178 -28.470999999999997 -145.854 -26.759999999999998 -146.47 -25.019999999999996 C -146.673 -24.440999999999995 -146.87199999999999 -23.855999999999995 -147.063 -23.267999999999997 C -149.44799999999998 -15.936999999999998 -150.737 -8.115999999999998 -150.737 3.552713678800501e-15 C -150.737 2.9380000000000037 -150.549 5.833000000000004 -150.222 8.686000000000003 L -141.684 8.686000000000003 C -142.058 5.842 -142.26 2.944 -142.26 0 C -142.26 -19.626 -133.745 -37.286 -120.23499999999999 -49.532 L -120.23499999999999 1.907 L -98.06799999999998 1.907 L -98.06799999999998 -62.879000000000005 C -96.58199999999998 -63.416000000000004 -95.07199999999999 -63.906000000000006 -93.54099999999998 -64.339 C -91.95199999999998 -64.79299999999999 -90.33999999999999 -65.187 -88.70599999999999 -65.52 L -88.70599999999999 -21.198999999999998 L -66.53799999999998 -21.198999999999998 L -66.53799999999998 -66.293 C -63.34699999999998 -65.872 -60.228999999999985 -65.221 -57.195999999999984 -64.36500000000001 L -57.195999999999984 8.658 L -35.02599999999998 8.658 L -35.02599999999998 -53.277 C -33.46299999999998 -52.09 -31.953999999999983 -50.835 -30.50199999999998 -49.518 L -30.50199999999998 -49.532000000000004 C -16.991999999999983 -37.286 -8.47799999999998 -19.626000000000005 -8.47799999999998 -7.105427357601002e-15 C -8.47799999999998 2.943999999999993 -8.67999999999998 5.8419999999999925 -9.05399999999998 8.685999999999993 L -0.5159999999999805 8.685999999999993 C -0.187 5.833 0 2.938 0 0" stroke-linecap="round" />
</g>
</g>
</g>
<g transform="matrix(1.9211538461538462 0 0 1.9211538461538462 706.5901818404228 847.1607588802631)" id="text-logo"  >
<g style=""  paint-order="stroke"   >
		<g transform="matrix(1 0 0 1 0 0)" id="text-logo-path-0"  >
<path style="stroke: none; stroke-width: 0; stroke-dasharray: none; stroke-linecap: butt; stroke-dashoffset: 0; stroke-linejoin: miter; stroke-miterlimit: 4; fill: rgb(0,0,0); fill-rule: nonzero; opacity: 1;"  paint-order="stroke"  transform=" translate(-184.01, 23.075)" d="M 16.34 0 L 5.18 0 L 5.18 -46.25 L 27.53 -46.25 Q 34.6 -46.25 39.3 -41.32 Q 43.99 -36.39 43.99 -28.89 L 43.99 -28.89 Q 43.99 -23.94 41.77 -19.96 Q 39.54 -15.97 35.76 -13.95 L 35.76 -13.95 L 45.29 0 L 31.41 0 L 24.47 -11.49 L 16.34 -11.49 L 16.34 0 Z M 16.34 -35.89 L 16.34 -21.81 L 25.9 -21.81 Q 28.75 -21.81 30.76 -23.89 Q 32.77 -25.96 32.77 -28.89 L 32.77 -28.89 Q 32.77 -31.74 30.78 -33.82 Q 28.79 -35.89 25.96 -35.89 L 25.96 -35.89 L 16.34 -35.89 Z M 64.38 0 L 53.22 0 L 53.22 -46.25 L 64.38 -46.25 L 64.38 0 Z M 72.45 -23.47 L 72.45 -23.47 Q 72.45 -28.26 74.34 -32.57 Q 76.23 -36.89 79.52 -40.08 Q 82.81 -43.26 87.49 -45.16 Q 92.17 -47.05 97.48 -47.05 L 97.48 -47.05 Q 104.72 -47.05 110.38 -43.94 Q 116.04 -40.84 119.23 -35.49 L 119.23 -35.49 L 109.77 -29.98 Q 108.08 -33.24 104.92 -35.11 Q 101.77 -36.99 97.48 -36.99 L 97.48 -36.99 Q 91.47 -36.99 87.61 -33.12 Q 83.74 -29.25 83.74 -23.47 L 83.74 -23.47 Q 83.74 -19.82 85.46 -16.67 Q 87.19 -13.51 90.36 -11.59 Q 93.53 -9.66 97.48 -9.66 L 97.48 -9.66 Q 101.6 -9.66 104.74 -11.55 Q 107.88 -13.45 109.64 -16.67 L 109.64 -16.67 L 119.1 -11.22 Q 115.85 -5.78 110.2 -2.47 Q 104.56 0.83 97.48 0.83 L 97.48 0.83 Q 92.14 0.83 87.47 -1.06 Q 82.81 -2.96 79.52 -6.19 Q 76.23 -9.43 74.34 -13.91 Q 72.45 -18.39 72.45 -23.47 Z M 137.73 0 L 126.57 0 L 126.57 -46.25 L 137.73 -46.25 L 137.73 -28.29 L 158.05 -28.29 L 158.05 -46.25 L 169.27 -46.25 L 169.27 0 L 158.05 0 L 158.05 -17.96 L 137.73 -17.96 L 137.73 0 Z M 177.47 -16.17 L 177.47 -16.17 L 188.56 -16.17 Q 188.59 -15.87 188.71 -15.37 Q 188.83 -14.88 189.47 -13.61 Q 190.12 -12.35 191.1 -11.39 Q 192.08 -10.43 194.07 -9.63 Q 196.06 -8.83 198.62 -8.83 L 198.62 -8.83 Q 202.07 -8.83 203.75 -10.04 Q 205.43 -11.26 205.43 -12.92 L 205.43 -12.92 Q 205.43 -13.78 204.95 -14.48 Q 204.46 -15.17 203.82 -15.64 Q 203.17 -16.1 201.94 -16.55 Q 200.71 -17 199.78 -17.25 Q 198.85 -17.5 197.26 -17.9 L 197.26 -17.9 Q 190.65 -19.46 187.53 -20.75 L 187.53 -20.75 Q 178.17 -24.64 178.17 -32.37 L 178.17 -32.37 Q 178.17 -36.52 180.67 -39.89 Q 183.18 -43.26 187.48 -45.16 Q 191.78 -47.05 196.99 -47.05 L 196.99 -47.05 Q 201.31 -47.05 204.91 -45.65 Q 208.52 -44.26 210.76 -42.02 Q 213 -39.78 214.21 -37.07 Q 215.42 -34.37 215.42 -31.61 L 215.42 -31.61 L 204.33 -31.61 Q 204.33 -33.57 202.26 -35.31 Q 200.18 -37.05 196.86 -37.05 L 196.86 -37.05 Q 194.11 -37.05 191.78 -35.91 Q 189.46 -34.76 189.46 -32.9 L 189.46 -32.9 Q 189.46 -31.34 191.47 -30.43 Q 193.47 -29.52 199.02 -28.09 L 199.02 -28.09 Q 205.33 -26.46 208.12 -25.2 L 208.12 -25.2 Q 215.69 -21.78 216.48 -15.24 L 216.48 -15.24 Q 216.58 -14.41 216.58 -13.55 L 216.58 -13.55 Q 216.58 -7.01 211.42 -3.09 Q 206.26 0.83 198.02 0.83 L 198.02 0.83 Q 193.84 0.83 190.34 -0.25 Q 186.83 -1.33 184.51 -3.07 Q 182.19 -4.81 180.56 -7.07 Q 178.93 -9.33 178.2 -11.64 Q 177.47 -13.95 177.47 -16.17 Z M 236.34 -35.89 L 219.97 -35.89 L 219.97 -46.25 L 264.03 -46.25 L 264.03 -35.89 L 247.63 -35.89 L 247.63 0 L 236.34 0 L 236.34 -35.89 Z M 265.92 -23.11 L 265.92 -23.11 Q 265.92 -27.96 267.8 -32.37 Q 269.68 -36.79 272.86 -40.01 Q 276.05 -43.23 280.47 -45.14 Q 284.88 -47.05 289.76 -47.05 L 289.76 -47.05 Q 294.58 -47.05 299.01 -45.14 Q 303.44 -43.23 306.63 -40.01 Q 309.82 -36.79 311.73 -32.36 Q 313.64 -27.92 313.64 -23.11 L 313.64 -23.11 Q 313.64 -18.26 311.74 -13.83 Q 309.85 -9.4 306.65 -6.19 Q 303.44 -2.99 299.01 -1.08 Q 294.58 0.83 289.76 0.83 L 289.76 0.83 Q 283.26 0.83 277.76 -2.39 Q 272.27 -5.61 269.09 -11.11 Q 265.92 -16.6 265.92 -23.11 Z M 276.12 -23.11 L 276.12 -23.11 Q 276.12 -17.46 280.12 -13.5 Q 284.12 -9.53 289.76 -9.53 L 289.76 -9.53 Q 295.34 -9.53 299.33 -13.5 Q 303.31 -17.46 303.31 -23.11 L 303.31 -23.11 Q 303.31 -28.69 299.33 -32.67 Q 295.34 -36.66 289.76 -36.66 L 289.76 -36.66 Q 284.12 -36.66 280.12 -32.69 Q 276.12 -28.72 276.12 -23.11 Z M 330.14 -22.64 L 313.84 -39.11 L 321.77 -47.05 L 338.11 -30.61 L 354.91 -47.05 L 362.84 -39.18 L 345.91 -22.51 L 361.35 -7.14 L 353.28 0.9 L 338.04 -14.61 L 322.6 0.76 L 314.63 -7.34 L 330.14 -22.64 Z" stroke-linecap="round" />
</g>
</g>
</g>
<g transform="matrix(1.9211538461538462 0 0 1.9211538461538462 702.0577596649418 955.9270160281543)" id="tagline-8f2d2d2b-0a07-438c-b253-cea3c0a6ef6c-logo"  >
<g style=""  paint-order="stroke"   >
		<g transform="matrix(1 0 0 1 0 0)" id="tagline-8f2d2d2b-0a07-438c-b253-cea3c0a6ef6c-logo-path-0"  >
<path style="stroke: none; stroke-width: 0; stroke-dasharray: none; stroke-linecap: butt; stroke-dashoffset: 0; stroke-linejoin: miter; stroke-miterlimit: 4; fill: rgb(0,0,0); fill-rule: nonzero; opacity: 1;"  paint-order="stroke"  transform=" translate(-156.09499999999997, 12.575000000000001)" d="M 1.66 -8.8 L 1.66 -8.8 L 7.7 -8.8 Q 7.71 -8.64 7.78 -8.36 Q 7.84 -8.09 8.19 -7.41 Q 8.55 -6.72 9.08 -6.2 Q 9.61 -5.67 10.7 -5.24 Q 11.78 -4.81 13.17 -4.81 L 13.17 -4.81 Q 15.05 -4.81 15.96 -5.47 Q 16.87 -6.12 16.87 -7.03 L 16.87 -7.03 Q 16.87 -7.5 16.61 -7.88 Q 16.35 -8.26 16 -8.51 Q 15.65 -8.76 14.98 -9.01 Q 14.31 -9.25 13.8 -9.39 Q 13.3 -9.52 12.43 -9.74 L 12.43 -9.74 Q 8.83 -10.59 7.14 -11.29 L 7.14 -11.29 Q 2.04 -13.41 2.04 -17.61 L 2.04 -17.61 Q 2.04 -19.87 3.41 -21.71 Q 4.77 -23.54 7.11 -24.57 Q 9.45 -25.6 12.29 -25.6 L 12.29 -25.6 Q 14.63 -25.6 16.59 -24.84 Q 18.55 -24.08 19.77 -22.86 Q 20.99 -21.64 21.65 -20.17 Q 22.31 -18.7 22.31 -17.2 L 22.31 -17.2 L 16.28 -17.2 Q 16.28 -18.27 15.15 -19.21 Q 14.02 -20.16 12.21 -20.16 L 12.21 -20.16 Q 10.71 -20.16 9.45 -19.54 Q 8.18 -18.92 8.18 -17.9 L 8.18 -17.9 Q 8.18 -17.05 9.28 -16.56 Q 10.37 -16.06 13.39 -15.28 L 13.39 -15.28 Q 16.82 -14.4 18.34 -13.71 L 18.34 -13.71 Q 22.46 -11.85 22.89 -8.29 L 22.89 -8.29 Q 22.94 -7.84 22.94 -7.37 L 22.94 -7.37 Q 22.94 -3.81 20.14 -1.68 Q 17.33 0.45 12.85 0.45 L 12.85 0.45 Q 10.57 0.45 8.66 -0.14 Q 6.76 -0.72 5.49 -1.67 Q 4.23 -2.62 3.34 -3.85 Q 2.46 -5.08 2.06 -6.33 Q 1.66 -7.59 1.66 -8.8 Z M 33.69 -19.53 L 24.79 -19.53 L 24.79 -25.17 L 48.76 -25.17 L 48.76 -19.53 L 39.84 -19.53 L 39.84 0 L 33.69 0 L 33.69 -19.53 Z M 49.79 -12.57 L 49.79 -12.57 Q 49.79 -15.21 50.81 -17.61 Q 51.83 -20.02 53.57 -21.77 Q 55.3 -23.52 57.7 -24.56 Q 60.11 -25.6 62.76 -25.6 L 62.76 -25.6 Q 65.38 -25.6 67.79 -24.56 Q 70.21 -23.52 71.94 -21.77 Q 73.67 -20.02 74.71 -17.61 Q 75.75 -15.19 75.75 -12.57 L 75.75 -12.57 Q 75.75 -9.94 74.72 -7.52 Q 73.69 -5.11 71.95 -3.37 Q 70.21 -1.63 67.79 -0.59 Q 65.38 0.45 62.76 0.45 L 62.76 0.45 Q 59.22 0.45 56.23 -1.3 Q 53.24 -3.05 51.52 -6.04 Q 49.79 -9.03 49.79 -12.57 Z M 55.34 -12.57 L 55.34 -12.57 Q 55.34 -9.5 57.51 -7.34 Q 59.69 -5.19 62.76 -5.19 L 62.76 -5.19 Q 65.8 -5.19 67.97 -7.34 Q 70.13 -9.5 70.13 -12.57 L 70.13 -12.57 Q 70.13 -15.61 67.97 -17.78 Q 65.8 -19.95 62.76 -19.95 L 62.76 -19.95 Q 59.69 -19.95 57.51 -17.79 Q 55.34 -15.63 55.34 -12.57 Z M 78.52 -12.77 L 78.52 -12.77 Q 78.52 -15.37 79.55 -17.72 Q 80.58 -20.07 82.36 -21.81 Q 84.15 -23.54 86.7 -24.57 Q 89.25 -25.6 92.14 -25.6 L 92.14 -25.6 Q 96.08 -25.6 99.16 -23.91 Q 102.24 -22.22 103.97 -19.31 L 103.97 -19.31 L 98.82 -16.31 Q 97.9 -18.08 96.19 -19.11 Q 94.47 -20.13 92.14 -20.13 L 92.14 -20.13 Q 88.87 -20.13 86.76 -18.02 Q 84.66 -15.92 84.66 -12.77 L 84.66 -12.77 Q 84.66 -10.79 85.6 -9.07 Q 86.54 -7.35 88.26 -6.31 Q 89.99 -5.26 92.14 -5.26 L 92.14 -5.26 Q 94.38 -5.26 96.09 -6.29 Q 97.79 -7.32 98.75 -9.07 L 98.75 -9.07 L 103.9 -6.11 Q 102.13 -3.14 99.06 -1.35 Q 95.99 0.45 92.14 0.45 L 92.14 0.45 Q 89.23 0.45 86.69 -0.58 Q 84.15 -1.61 82.36 -3.37 Q 80.58 -5.13 79.55 -7.57 Q 78.52 -10.01 78.52 -12.77 Z M 114.04 0 L 107.96 0 L 107.96 -25.17 L 114.04 -25.17 L 114.04 -14.09 L 123.65 -25.17 L 131.27 -25.17 L 122.62 -15.01 L 133.11 0 L 125.24 0 L 118.35 -10.39 L 114.04 -5.65 L 114.04 0 Z M 133.89 -8.8 L 133.89 -8.8 L 139.92 -8.8 Q 139.94 -8.64 140.01 -8.36 Q 140.07 -8.09 140.42 -7.41 Q 140.77 -6.72 141.31 -6.2 Q 141.84 -5.67 142.92 -5.24 Q 144.01 -4.81 145.4 -4.81 L 145.4 -4.81 Q 147.28 -4.81 148.19 -5.47 Q 149.1 -6.12 149.1 -7.03 L 149.1 -7.03 Q 149.1 -7.5 148.84 -7.88 Q 148.58 -8.26 148.23 -8.51 Q 147.87 -8.76 147.21 -9.01 Q 146.54 -9.25 146.03 -9.39 Q 145.52 -9.52 144.66 -9.74 L 144.66 -9.74 Q 141.06 -10.59 139.36 -11.29 L 139.36 -11.29 Q 134.27 -13.41 134.27 -17.61 L 134.27 -17.61 Q 134.27 -19.87 135.63 -21.71 Q 137 -23.54 139.34 -24.57 Q 141.68 -25.6 144.51 -25.6 L 144.51 -25.6 Q 146.86 -25.6 148.82 -24.84 Q 150.78 -24.08 152 -22.86 Q 153.22 -21.64 153.88 -20.17 Q 154.54 -18.7 154.54 -17.2 L 154.54 -17.2 L 148.51 -17.2 Q 148.51 -18.27 147.38 -19.21 Q 146.25 -20.16 144.44 -20.16 L 144.44 -20.16 Q 142.94 -20.16 141.68 -19.54 Q 140.41 -18.92 140.41 -17.9 L 140.41 -17.9 Q 140.41 -17.05 141.51 -16.56 Q 142.6 -16.06 145.62 -15.28 L 145.62 -15.28 Q 149.05 -14.4 150.57 -13.71 L 150.57 -13.71 Q 154.68 -11.85 155.12 -8.29 L 155.12 -8.29 Q 155.17 -7.84 155.17 -7.37 L 155.17 -7.37 Q 155.17 -3.81 152.36 -1.68 Q 149.55 0.45 145.07 0.45 L 145.07 0.45 Q 142.8 0.45 140.89 -0.14 Q 138.98 -0.72 137.72 -1.67 Q 136.46 -2.62 135.57 -3.85 Q 134.69 -5.08 134.29 -6.33 Q 133.89 -7.59 133.89 -8.8 Z M 175.79 -19.53 L 166.88 -19.53 L 166.88 -25.17 L 190.85 -25.17 L 190.85 -19.53 L 181.93 -19.53 L 181.93 0 L 175.79 0 L 175.79 -19.53 Z M 191.88 -12.57 L 191.88 -12.57 Q 191.88 -15.21 192.9 -17.61 Q 193.92 -20.02 195.66 -21.77 Q 197.39 -23.52 199.8 -24.56 Q 202.2 -25.6 204.85 -25.6 L 204.85 -25.6 Q 207.47 -25.6 209.89 -24.56 Q 212.3 -23.52 214.03 -21.77 Q 215.77 -20.02 216.81 -17.61 Q 217.84 -15.19 217.84 -12.57 L 217.84 -12.57 Q 217.84 -9.94 216.81 -7.52 Q 215.79 -5.11 214.04 -3.37 Q 212.3 -1.63 209.89 -0.59 Q 207.47 0.45 204.85 0.45 L 204.85 0.45 Q 201.31 0.45 198.32 -1.3 Q 195.33 -3.05 193.61 -6.04 Q 191.88 -9.03 191.88 -12.57 Z M 197.43 -12.57 L 197.43 -12.57 Q 197.43 -9.5 199.61 -7.34 Q 201.78 -5.19 204.85 -5.19 L 204.85 -5.19 Q 207.89 -5.19 210.06 -7.34 Q 212.23 -9.5 212.23 -12.57 L 212.23 -12.57 Q 212.23 -15.61 210.06 -17.78 Q 207.89 -19.95 204.85 -19.95 L 204.85 -19.95 Q 201.78 -19.95 199.61 -17.79 Q 197.43 -15.63 197.43 -12.57 Z M 242.99 0 L 230.6 0 L 230.6 -25.17 L 241.51 -25.17 Q 244.17 -25.17 246.06 -24.66 Q 247.96 -24.15 249.04 -23.21 Q 250.11 -22.26 250.6 -21.04 Q 251.09 -19.82 251.09 -18.25 L 251.09 -18.25 Q 251.09 -17.34 250.81 -16.48 Q 250.53 -15.61 250.1 -15 Q 249.68 -14.4 249.33 -14.01 Q 248.99 -13.62 248.72 -13.42 L 248.72 -13.42 Q 250.54 -12.5 251.52 -10.93 Q 252.5 -9.36 252.5 -7.33 L 252.5 -7.33 Q 252.5 -5.75 251.96 -4.45 Q 251.43 -3.16 250.34 -2.14 Q 249.24 -1.12 247.37 -0.56 Q 245.5 0 242.99 0 L 242.99 0 Z M 236.67 -10.1 L 236.67 -5.22 L 242.29 -5.22 Q 245.96 -5.22 245.96 -7.66 L 245.96 -7.66 Q 245.96 -9 245.06 -9.55 Q 244.17 -10.1 242.29 -10.1 L 242.29 -10.1 L 236.67 -10.1 Z M 236.67 -19.98 L 236.67 -14.72 L 241.87 -14.72 Q 243.81 -14.72 244.56 -15.35 Q 245.32 -15.97 245.32 -17.47 L 245.32 -17.47 Q 245.32 -19.98 241.87 -19.98 L 241.87 -19.98 L 236.67 -19.98 Z M 255.48 -12.92 L 255.48 -12.92 L 255.48 -25.17 L 261.55 -25.17 L 261.55 -12.92 Q 261.55 -9.25 263.08 -7.22 Q 264.62 -5.19 267.47 -5.19 L 267.47 -5.19 Q 270.31 -5.19 271.96 -7.24 Q 273.62 -9.3 273.62 -12.92 L 273.62 -12.92 L 273.62 -25.17 L 279.76 -25.17 L 279.76 -12.92 Q 279.76 -9.85 278.83 -7.32 Q 277.9 -4.79 276.25 -3.1 Q 274.61 -1.41 272.36 -0.48 Q 270.11 0.45 267.47 0.45 L 267.47 0.45 Q 262.05 0.45 258.77 -3.14 Q 255.48 -6.74 255.48 -12.92 Z M 293.62 -9.5 L 282.88 -25.17 L 289.88 -25.17 L 296.72 -14.87 L 303.46 -25.17 L 310.53 -25.17 L 299.72 -9.5 L 299.72 0 L 293.62 0 L 293.62 -9.5 Z" stroke-linecap="round" />
</g>
</g>
</g>
</svg>